<svg width="148" height="148" fill="none" xmlns="http://www.w3.org/2000/svg"><circle cx="74" cy="74" r="74" fill="#FFFFFE"/><path d="M91.16 115.267H55.84a6.602 6.602 0 01-6.602-6.602V39.84a6.602 6.602 0 016.602-6.602h35.32a6.602 6.602 0 016.602 6.602v68.825a6.602 6.602 0 01-6.602 6.602z" fill="#A7A9BE"/><path d="M91.16 33.238h-4.95a6.602 6.602 0 016.602 6.602v68.825a6.602 6.602 0 01-6.602 6.602h4.951a6.602 6.602 0 006.602-6.602V39.84a6.602 6.602 0 00-6.602-6.602z" fill="#9A9B9E"/><path d="M93.47 39.84v68.825a2.311 2.311 0 01-2.31 2.311H55.84a2.311 2.311 0 01-2.31-2.311V39.84a2.31 2.31 0 012.31-2.31h6.619a.9.9 0 01.852.607l.872 2.534a.902.902 0 00.853.608h16.928a.901.901 0 00.853-.608l.872-2.534a.901.901 0 01.852-.608h6.62a2.31 2.31 0 012.31 2.31z" fill="#FAE6A2"/><path d="M91.16 37.53h-4.95a2.31 2.31 0 012.31 2.31v68.825a2.311 2.311 0 01-2.31 2.311h4.951a2.311 2.311 0 002.31-2.311V39.84a2.31 2.31 0 00-2.31-2.31z" fill="#ECD279"/><path d="M84.367 75.422H62.633a2.642 2.642 0 01-2.642-2.642v-1.86a.53.53 0 01.53-.53h25.958a.53.53 0 01.53.53v1.86a2.642 2.642 0 01-2.642 2.642z" fill="#FD7E41"/><path d="M86.48 70.39h-4.952a.53.53 0 01.53.53v1.86a2.643 2.643 0 01-2.643 2.642h4.952a2.642 2.642 0 002.642-2.642v-1.86a.53.53 0 00-.53-.53z" fill="#D48145"/><path d="M86.48 65.768H60.52a.53.53 0 01-.53-.546c.074-2.337 1.156-11.374 13.51-11.374s13.436 9.037 13.51 11.374c.009.3-.23.546-.53.546z" fill="#FD7E41"/><path d="M73.5 53.848c-.882 0-1.705.048-2.476.134 10.026 1.124 10.966 9.07 11.034 11.24a.53.53 0 01-.53.546h4.952a.53.53 0 00.53-.546c-.074-2.337-1.156-11.374-13.51-11.374z" fill="#FD7E41"/><path d="M86.288 70.39H60.712a2.31 2.31 0 110-4.622h25.576a2.31 2.31 0 010 4.621z" fill="#C15C2B"/><path d="M86.288 65.768h-4.952a2.31 2.31 0 110 4.621h4.952a2.31 2.31 0 100-4.62z" fill="#D06D4A"/><path d="M83.568 99.71H63.432a1.65 1.65 0 01-1.65-1.65v-8.252c0-.912.739-1.65 1.65-1.65h20.136c.912 0 1.65.738 1.65 1.65v8.252a1.65 1.65 0 01-1.65 1.65z" fill="#43BA7F"/><path d="M91.16 32H55.84C51.517 32 48 35.517 48 39.84v3.586c.057 1.64 2.42 1.638 2.476 0V39.84a5.37 5.37 0 015.364-5.364h35.32a5.37 5.37 0 015.364 5.364v68.825a5.37 5.37 0 01-5.364 5.364H55.84a5.37 5.37 0 01-5.364-5.364V49.317c-.057-1.639-2.42-1.637-2.476 0v59.348c0 4.323 3.517 7.84 7.84 7.84h35.32c4.323 0 7.84-3.517 7.84-7.84V39.84c0-4.323-3.517-7.84-7.84-7.84z" fill="#000"/><path d="M93.47 102.558c.685 0 1.239-.554 1.239-1.238V39.84a3.553 3.553 0 00-3.549-3.549h-6.619a2.14 2.14 0 00-2.023 1.443l-.794 2.307H65.275l-.794-2.307a2.14 2.14 0 00-2.022-1.443h-6.62a3.553 3.553 0 00-3.548 3.549v68.825a3.553 3.553 0 003.549 3.549h35.32a3.553 3.553 0 003.549-3.549v-1.504c-.057-1.639-2.42-1.638-2.476 0v1.504c0 .592-.481 1.073-1.073 1.073H55.84a1.074 1.074 0 01-1.073-1.073V39.84c0-.592.481-1.073 1.073-1.073h6.379l.794 2.307a2.14 2.14 0 002.023 1.443h16.928a2.14 2.14 0 002.023-1.443l.794-2.307h6.38c.59 0 1.072.481 1.072 1.073v61.48c0 .684.554 1.238 1.238 1.238z" fill="#000"/><path d="M88.247 72.78v-1.745c2.109-1.371 2.106-4.545-.003-5.913-.048-1.329-.354-3.864-1.835-6.353a1.238 1.238 0 00-2.128 1.266c.994 1.67 1.33 3.408 1.441 4.496H61.276c.292-2.943 2.09-9.444 12.224-9.444 2.823 0 5.21.5 7.098 1.487a1.238 1.238 0 101.147-2.194c-6.077-3.202-17.02-2.163-20.612 3.56-2 2.796-2.33 5.91-2.378 7.182-2.11 1.37-2.11 4.543-.002 5.913v1.745c0 2.14 1.74 3.88 3.88 3.88h21.734c2.14 0 3.88-1.74 3.88-3.88zm-1.96-5.774c1.421.05 1.42 2.096 0 2.146H60.713c-1.42-.05-1.42-2.096 0-2.146h25.576zm-.516 5.774c0 .775-.63 1.405-1.404 1.405H62.633c-.774 0-1.404-.63-1.404-1.405v-1.152H85.77v1.152zM63.432 86.92a2.892 2.892 0 00-2.888 2.888v8.252a2.892 2.892 0 002.888 2.889h20.136a2.892 2.892 0 002.888-2.888v-8.253a2.892 2.892 0 00-2.888-2.888H63.432zm20.549 2.888v8.252a.413.413 0 01-.413.413H63.432a.413.413 0 01-.413-.412v-8.253c0-.227.186-.413.413-.413h20.136c.228 0 .413.185.413.413z" fill="#000"/><path d="M74.379 90.567a1.238 1.238 0 00-1.718 1.783l.36.346h-2.352c-1.64.057-1.638 2.42 0 2.476h2.576l-.367.394a1.238 1.238 0 001.811 1.688l2.306-2.476a1.239 1.239 0 00-.047-1.735l-2.57-2.476z" fill="#000"/></svg>