<svg width="148" height="148" fill="none" xmlns="http://www.w3.org/2000/svg"><circle cx="74" cy="74" r="74" fill="#FFFFFE"/><path d="M54.454 62.974H37.232a2.43 2.43 0 01-2.431-2.431v-2.314c0-.516.418-.934.934-.934H55.95c.517 0 .935.418.935.934v2.314a2.43 2.43 0 01-2.431 2.43z" fill="#FD7E41"/><path d="M55.95 57.295h-4.732c.516 0 .934.418.934.934v2.314a2.43 2.43 0 01-2.43 2.43h4.732a2.43 2.43 0 002.43-2.43v-2.314a.934.934 0 00-.934-.934z" fill="#FD7E41"/><path d="M53.607 52.867H38.079v-.963a7.764 7.764 0 1115.528 0v.963z" fill="#CFDBE4"/><path d="M45.843 44.14c-.825 0-1.62.13-2.366.37a7.784 7.784 0 015.398 7.414v.943h4.732v-.943c0-4.299-3.476-7.784-7.764-7.784z" fill="#AFBBC6"/><path d="M52.993 57.295h-14.3c-.454 0-.86-.367-1.026-.924l-1.043-3.504h18.437l-1.042 3.504c-.166.557-.573.924-1.026.924z" fill="#7B727B"/><path d="M50.33 52.867l-1.043 3.504c-.166.557-.573.924-1.026.924h4.732c.453 0 .86-.367 1.026-.924l1.042-3.504H50.33z" fill="#686169"/><path d="M37.287 90.038v4.325c0 .523.423.948.946.948H96.57s3.233-5.252 3.233-12.472-3.233-13.464-3.233-13.464h-5.598v18.042s-8.413.275-10.262.275c-2.481 0-8.276-2.013-8.276-4.497v-4.709a4.336 4.336 0 00-4.334-4.339H53.168c-8.77 0-15.881 7.115-15.881 15.891z" fill="#FD7E41"/><path d="M96.57 69.375h-2.677s1.177 6.245 1.177 13.464c0 7.22-3.232 12.472-3.232 12.472h4.732s3.233-5.253 3.233-12.472c0-7.22-3.233-13.464-3.233-13.464zm-28.869 9.111v4.71a4.494 4.494 0 004.492 4.496c.67 0 5.985-.036 7.664-.082-2.073-.4-7.423-2.223-7.423-4.415v-4.709a4.337 4.337 0 00-4.335-4.339h-4.732a4.337 4.337 0 014.334 4.34z" fill="#FD7E41"/><path d="M53.03 105.879c5.662 0 10.253-4.59 10.253-10.253s-4.59-10.253-10.253-10.253-10.254 4.59-10.254 10.253 4.59 10.253 10.254 10.253zm46.36 0c5.662 0 10.253-4.59 10.253-10.253s-4.591-10.253-10.254-10.253c-5.662 0-10.253 4.59-10.253 10.253s4.59 10.253 10.253 10.253z" fill="#A7A9BE"/><path d="M99.39 99.137a3.511 3.511 0 100-7.022 3.511 3.511 0 000 7.022zm-42.822-3.265a3.513 3.513 0 10-7.009-.498 3.513 3.513 0 007.009.498z" fill="#EFEFEF"/><path d="M39.853 95.31h26.353c.36 0 .649-.3.632-.659-.344-7.334-6.395-13.174-13.808-13.174-7.414 0-13.465 5.84-13.809 13.174-.017.36.273.66.632.66z" fill="#43BA7F"/><path d="M53.03 81.477c-.808 0-1.597.073-2.367.206C56.96 82.77 61.8 88.116 62.106 94.65a.632.632 0 01-.632.66h4.732c.36 0 .649-.3.632-.66-.344-7.334-6.395-13.174-13.808-13.174z" fill="#2D9461"/><path d="M47.43 95.306h11.2a5.6 5.6 0 10-11.2 0z" fill="#FFE589"/><path d="M48.093 74.171h21.532a3.211 3.211 0 003.211-3.211c0-.842-.683-1.525-1.525-1.525H48.093a2.368 2.368 0 000 4.736z" fill="#7B727B"/><path d="M71.312 69.435h-4.733c.842 0 1.525.683 1.525 1.525a3.211 3.211 0 01-3.211 3.211h4.732a3.211 3.211 0 003.211-3.211c0-.842-.682-1.525-1.524-1.525z" fill="#686169"/><path d="M86.226 95.31h26.34c.36 0 .649-.3.632-.659-.344-7.334-6.392-13.174-13.802-13.174-7.41 0-13.458 5.84-13.802 13.174-.016.36.273.66.632.66z" fill="#43BA7F"/><path d="M99.396 81.477c-.807 0-1.597.073-2.366.206 6.293 1.088 11.129 6.433 11.436 12.968a.632.632 0 01-.632.66h4.732c.36 0 .649-.3.632-.66-.344-7.334-6.392-13.174-13.802-13.174z" fill="#2D9461"/><path d="M93.8 95.306h11.193a5.597 5.597 0 10-11.194 0z" fill="#FFE589"/><path d="M90.79 69.375h12.788a1.48 1.48 0 001.48-1.48v-3.576a1.48 1.48 0 00-1.48-1.48h-8.23a4.558 4.558 0 00-4.558 4.557v1.979z" fill="#43BA7F"/><path d="M99.803 69.375h3.775a1.48 1.48 0 001.48-1.48V64.32a1.48 1.48 0 00-1.48-1.48h-3.775v6.536z" fill="#FFE589"/><path d="M87.094 57.476a3.155 3.155 0 100-6.31 3.155 3.155 0 000 6.31z" fill="#43BA7F"/><path d="M112.69 88.347a1.184 1.184 0 00-2.097 1.098 12.494 12.494 0 011.383 4.683h-5.904c-1.461-7.434-11.894-7.43-13.35 0h-5.905c.848-10 12.868-15.025 20.599-8.593a1.182 1.182 0 101.504-1.826 15.013 15.013 0 00-8.051-3.34c-.384-4.184-1.633-7.789-2.467-9.811h5.176a2.665 2.665 0 002.663-2.663V64.32a2.666 2.666 0 00-2.663-2.663h-7.186l-.311-2.495a6.732 6.732 0 00-3.933-5.292l-.792-.352a4.344 4.344 0 00-4.262-3.534c-5.755.238-5.753 8.438 0 8.676 1.8 0 3.347-1.103 4.003-2.668l.093.041a4.353 4.353 0 012.543 3.423l.294 2.356a5.75 5.75 0 00-4.42 5.586v.795H86.8c-1.566.054-1.565 2.312 0 2.366h2.988v1.611c.054 1.567 2.313 1.566 2.366 0v-1.611h3.667c.66 1.464 2.206 5.277 2.665 9.764a14.936 14.936 0 00-6.332 1.827v-4.317c-.054-1.567-2.312-1.565-2.366 0v5.934a15.07 15.07 0 00-2.44 2.581c-2.502.075-5.61.162-6.64.162-.974 0-2.857-.415-4.571-1.208-1.732-.801-2.521-1.653-2.521-2.106v-4.709c0-1.5-.602-2.862-1.576-3.858a4.393 4.393 0 001.978-3.668 2.71 2.71 0 00-2.708-2.708H48.794l-2.245-4.095h7.905a3.618 3.618 0 003.614-3.614V58.23a2.12 2.12 0 00-2.117-2.117h-.62l.613-2.062h.67c1.566-.054 1.565-2.312 0-2.366h-1.83c-.107-4.433-3.453-8.075-7.758-8.646v-.729c-.054-1.566-2.313-1.565-2.366 0v.729c-4.305.571-7.65 4.213-7.758 8.646h-1.83c-1.566.054-1.565 2.313 0 2.366h.67l.613 2.062h-.62a2.12 2.12 0 00-2.117 2.117v2.314a3.618 3.618 0 003.614 3.614h6.618l2.498 4.556c-2.18 1.205-2.432 4.342-.455 5.874a17.127 17.127 0 00-3.035 1.844 1.183 1.183 0 001.432 1.885 14.538 14.538 0 018.075-2.962h16.106a3.158 3.158 0 012.78 3.132v4.71c-.174 3.305 6.587 5.721 9.459 5.679.85 0 3.044-.056 5.18-.118a14.976 14.976 0 00-1.447 5.37H67.99c-1.607-16.946-25.196-18.78-29.52-2.477v-1.612c0-2.856.818-5.625 2.368-8.008a1.183 1.183 0 10-1.984-1.29 17.017 17.017 0 00-2.75 9.299v4.324c0 1.175.955 2.131 2.13 2.131h3.396c1.477 14.013 21.328 14.003 22.8 0h23.56c1.477 14.013 21.328 14.003 22.8 0h1.776a1.818 1.818 0 001.814-1.898 14.879 14.879 0 00-1.69-6.249zM87.094 56.293a1.974 1.974 0 01-1.972-1.972c.108-2.616 3.836-2.615 3.944 0a1.974 1.974 0 01-1.972 1.972zm16.484 7.729c.164 0 .297.133.297.297v3.576a.297.297 0 01-.297.297h-2.592v-4.17h2.592zm-11.605 4.17v-.795a3.378 3.378 0 013.372-3.375h3.274v4.17h-6.646zm-46.13-22.869a6.588 6.588 0 016.577 6.361H39.266a6.588 6.588 0 016.577-6.36zM38.8 56.034l-.59-1.984h15.265l-.59 1.984a.5.5 0 01-.03.078H38.831a.487.487 0 01-.03-.078zm-2.816 4.509v-2.065h19.718v2.065a1.25 1.25 0 01-1.248 1.248H37.232a1.25 1.25 0 01-1.248-1.248zm12.11 12.445c-1.568-.056-1.569-2.313-.002-2.37h23.22c.188 0 .341.154.341.342a2.03 2.03 0 01-2.028 2.028H48.093zm4.936 31.708c-4.709 0-8.59-3.607-9.028-8.202h4.415c1.051 5.077 8.176 5.073 9.225 0h4.415c-.438 4.596-4.319 8.202-9.027 8.202zm2.158-8.202c-.786 1.938-3.532 1.937-4.317 0h4.317zm-6.414-2.37c1.228-4.286 7.284-4.283 8.511 0h-8.511zm10.934.004c-1.461-7.434-11.899-7.43-13.356 0h-5.909c1.8-15.213 23.38-15.202 25.173 0h-5.908zm41.841 2.366c-.786 1.938-3.533 1.937-4.318 0h4.318zm-2.153-5.604a4.421 4.421 0 014.253 3.233h-8.506a4.422 4.422 0 014.253-3.233zm-.006 13.806c-4.709 0-8.59-3.607-9.028-8.202h4.415c1.052 5.076 8.176 5.073 9.225 0h4.415c-.438 4.596-4.318 8.202-9.027 8.202z" fill="#000"/></svg>