<svg width="148" height="148" fill="none" xmlns="http://www.w3.org/2000/svg"><circle cx="74" cy="74" r="74" fill="#FFFFFE"/><path d="M110.887 52.616H55.965l4.886-8.755a1.459 1.459 0 011.274-.748h42.602c.529 0 1.016.286 1.273.748l4.887 8.755z" fill="#E3C762"/><path d="M106 43.86a1.457 1.457 0 00-1.273-.747h-5.281a1.46 1.46 0 011.274.748l4.886 8.755h5.281L106 43.861z" fill="#E3C762"/><path d="M106.17 88.832H60.681l-4.716-36.215h54.922l-4.717 36.215z" fill="#FFE589"/><path d="M105.606 52.617l-4.717 36.215h5.281l4.717-36.215h-5.281z" fill="#E3C762"/><path d="M93.853 71.644H73.634a.652.652 0 01-.652-.652v-.758c0-5.944 4.818-10.762 10.762-10.762 5.943 0 10.761 4.818 10.761 10.762v.758c0 .36-.292.652-.652.652z" fill="#43BA7F"/><path d="M83.744 59.472c-.764 0-1.508.081-2.227.232 4.875 1.026 8.535 5.35 8.535 10.53v.758c0 .36-.292.652-.652.652h4.453c.36 0 .652-.292.652-.652v-.758c0-5.944-4.818-10.762-10.761-10.762z" fill="#5ACB93"/><path d="M96.234 88.82a2.679 2.679 0 01-2.671 2.685h-13.84c-3.294 0-6.54.792-9.466 2.309l-16.003 8.295a13.592 13.592 0 01-4.156 1.363l-12.642 1.982a.298.298 0 01-.343-.294V92.248c0-.15.112-.277.261-.296l7.223-.886a11.54 11.54 0 003.778-1.144l5.191-2.61a14.446 14.446 0 004.129-3.11l8.65-9.375a2.603 2.603 0 013.424-.354 2.634 2.634 0 01.6 3.686l-4.66 6.44c-.463.638-.01 1.535.777 1.535h27.077a2.679 2.679 0 012.671 2.686z" fill="#A7A9BE"/><path d="M65.917 78.158l-4.662 6.44c-.463.639-.009 1.536.778 1.536h4.453c-.786 0-1.24-.897-.778-1.536l4.662-6.44a2.634 2.634 0 00-.601-3.686 2.602 2.602 0 00-3.426.356l-.34.37a2.637 2.637 0 01-.086 2.96zm27.646 7.976h-4.454a2.679 2.679 0 012.672 2.686 2.679 2.679 0 01-2.672 2.685h4.454a2.679 2.679 0 002.671-2.685 2.679 2.679 0 00-2.671-2.686zm-27.759 7.68L49.8 102.109a13.648 13.648 0 01-4.155 1.363l-8.533 1.337v.351c0 .182.163.322.343.293l12.643-1.981a13.619 13.619 0 004.155-1.363l16.003-8.295a20.567 20.567 0 019.465-2.309H75.27c-3.293 0-6.538.792-9.465 2.309z" fill="#999BA0"/><path d="M111.859 52.074l-4.886-8.756A2.575 2.575 0 00104.727 42h-6.21c-1.474.051-1.472 2.176 0 2.227h6.21c.125 0 .24.067.301.176l3.962 7.1H57.861l3.962-7.1a.345.345 0 01.302-.176h31.09c1.474-.051 1.473-2.176 0-2.227h-31.09c-.932 0-1.792.505-2.246 1.318l-4.886 8.756a1.113 1.113 0 00-.132.686l.584 4.486a1.114 1.114 0 002.208-.287l-.42-3.23h52.386l-4.426 33.99h-8.008a3.793 3.793 0 00-3.622-2.699H66.777l4.494-6.21c.59-.814.825-1.81.662-2.803a3.724 3.724 0 00-6.407-1.935l-4.947 5.361-2.255-17.324a1.113 1.113 0 00-2.208.288l2.496 19.168-1.736 1.881a13.288 13.288 0 01-3.81 2.872l-5.191 2.61a10.43 10.43 0 01-3.413 1.033l-7.223.886a1.412 1.412 0 00-1.239 1.4v12.913a1.408 1.408 0 001.629 1.393l12.641-1.981a14.723 14.723 0 004.497-1.475l6.616-3.43c1.285-.723.306-2.61-1.025-1.976l-6.616 3.429a12.46 12.46 0 01-3.816 1.252l-11.7 1.834V92.969l6.507-.798a12.62 12.62 0 004.142-1.254l5.191-2.61a15.508 15.508 0 004.447-3.351l8.65-9.374a1.493 1.493 0 011.96-.203c.33.235.547.586.613.988a1.51 1.51 0 01-.268 1.138l-4.662 6.44a2.074 2.074 0 00-.167 2.17 2.066 2.066 0 001.847 1.132h27.077c2.068.086 2.066 3.06 0 3.145h-13.84c-3.457 0-6.907.842-9.978 2.434L64.97 95.3a1.113 1.113 0 101.025 1.977l4.774-2.475a19.54 19.54 0 018.953-2.183h13.84a3.794 3.794 0 003.616-2.674h8.993c.559 0 1.032-.414 1.104-.969l4.716-36.216a1.117 1.117 0 00-.132-.686z" fill="#000"/><path d="M73.634 72.757h20.22c.973 0 1.765-.791 1.765-1.765v-.758c-.654-15.758-23.102-15.745-23.75 0v.758c0 .974.792 1.765 1.765 1.765zm.461-2.523c.532-12.803 18.77-12.793 19.297 0v.297H74.095v-.297z" fill="#000"/></svg>