<svg width="25" height="25" fill="none" xmlns="http://www.w3.org/2000/svg"><rect width="24.348" height="24.348" rx="2.899" fill="#FCC232"/><path d="M7.55 10.397a.64.64 0 01.199-.416.616.616 0 01.422-.169h8.658c.157 0 .307.06.422.169a.64.64 0 01.199.416l.546 6.939a1.294 1.294 0 01-.326.963 1.247 1.247 0 01-.915.41h-8.51a1.225 1.225 0 01-.915-.41 1.276 1.276 0 01-.326-.963l.545-6.939h.001z" stroke="#000" stroke-width=".813" stroke-linecap="round" stroke-linejoin="round"/><path d="M14.99 11.719V8.542a2.57 2.57 0 00-.73-1.798A2.466 2.466 0 0012.5 6c-.661 0-1.295.268-1.762.744a2.568 2.568 0 00-.73 1.798v3.177" stroke="#000" stroke-width=".813" stroke-linecap="round" stroke-linejoin="round"/></svg>