<svg width="134" height="24" fill="none" xmlns="http://www.w3.org/2000/svg"><path d="M3.435 23H.945V1.584h11.938v2.212H3.435v7.837h8.877v2.212H3.434V23zm26.499-8.042c0 2.617-.66 4.663-1.978 6.138-1.318 1.465-3.14 2.197-5.464 2.197-1.435 0-2.71-.337-3.823-1.01-1.113-.675-1.973-1.641-2.578-2.901-.606-1.26-.908-2.735-.908-4.424 0-2.617.654-4.653 1.962-6.108 1.31-1.465 3.125-2.198 5.45-2.198 2.246 0 4.028.747 5.346 2.242 1.329 1.494 1.993 3.515 1.993 6.064zm-12.232 0c0 2.05.41 3.613 1.23 4.687.82 1.075 2.027 1.612 3.619 1.612s2.798-.532 3.618-1.597c.83-1.074 1.245-2.641 1.245-4.702 0-2.041-.415-3.589-1.245-4.643-.82-1.065-2.036-1.597-3.648-1.597-1.591 0-2.793.522-3.603 1.567s-1.216 2.603-1.216 4.673zm30.366 0c0 2.617-.659 4.663-1.977 6.138-1.319 1.465-3.14 2.197-5.464 2.197-1.436 0-2.71-.337-3.823-1.01-1.114-.675-1.973-1.641-2.578-2.901-.606-1.26-.909-2.735-.909-4.424 0-2.617.655-4.653 1.963-6.108 1.309-1.465 3.125-2.198 5.45-2.198 2.246 0 4.028.747 5.346 2.242 1.328 1.494 1.992 3.515 1.992 6.064zm-12.231 0c0 2.05.41 3.613 1.23 4.687.82 1.075 2.027 1.612 3.618 1.612 1.592 0 2.798-.532 3.619-1.597.83-1.074 1.245-2.641 1.245-4.702 0-2.041-.415-3.589-1.245-4.643-.82-1.065-2.036-1.597-3.648-1.597-1.591 0-2.793.522-3.603 1.567s-1.216 2.603-1.216 4.673zm27.436 5.889h-.131c-1.123 1.63-2.803 2.446-5.04 2.446-2.1 0-3.735-.718-4.907-2.153-1.162-1.436-1.743-3.477-1.743-6.123 0-2.647.586-4.702 1.758-6.167 1.172-1.465 2.803-2.198 4.892-2.198 2.178 0 3.848.791 5.01 2.373h.19L63.2 7.868l-.058-1.128V.207h2.431V23h-1.977l-.323-2.153zm-4.863.41c1.66 0 2.862-.45 3.604-1.348.752-.908 1.128-2.368 1.128-4.38v-.512c0-2.276-.381-3.897-1.143-4.864-.752-.976-1.958-1.465-3.618-1.465-1.426 0-2.52.557-3.281 1.67-.752 1.104-1.128 2.666-1.128 4.688 0 2.05.376 3.599 1.128 4.643.752 1.045 1.855 1.568 3.31 1.568z" fill="#fff"/><path d="M85.627 23h-4.468v-9.565c0-2.364-.879-3.545-2.637-3.545-1.25 0-2.153.425-2.71 1.274-.556.85-.834 2.227-.834 4.13V23H70.51V.207h4.468v4.644c0 .36-.035 1.21-.103 2.548l-.103 1.319h.235c.996-1.602 2.578-2.403 4.746-2.403 1.924 0 3.384.518 4.38 1.553s1.494 2.52 1.494 4.453V23zm16.201 0l-.6-2.095h-.235c-.478.762-1.157 1.353-2.036 1.773-.879.41-1.88.615-3.003.615-1.924 0-3.374-.513-4.35-1.538-.977-1.035-1.465-2.52-1.465-4.453V6.623h4.467v9.566c0 1.181.21 2.07.63 2.666.42.585 1.09.878 2.007.878 1.25 0 2.154-.415 2.71-1.245.557-.84.835-2.226.835-4.16V6.623h4.468V23h-3.428zm17.227-16.685c1.933 0 3.447.757 4.541 2.27 1.093 1.505 1.64 3.57 1.64 6.197 0 2.705-.566 4.8-1.699 6.284-1.123 1.485-2.656 2.227-4.599 2.227-1.924 0-3.433-.698-4.527-2.095h-.307L113.356 23h-3.413V.207h4.468V5.51c0 .674-.058 1.753-.176 3.237h.176c1.045-1.621 2.593-2.432 4.644-2.432zm-1.436 3.575c-1.103 0-1.909.341-2.417 1.025-.508.674-.771 1.792-.791 3.355v.483c0 1.758.259 3.017.777 3.78.527.76 1.357 1.142 2.49 1.142.918 0 1.645-.42 2.182-1.26.547-.85.821-2.08.821-3.691 0-1.612-.274-2.818-.821-3.619-.547-.81-1.294-1.215-2.241-1.215zm10.679 11.015c0-.82.22-1.44.659-1.86.439-.42 1.079-.63 1.919-.63.811 0 1.436.215 1.875.645.449.43.674 1.045.674 1.845 0 .772-.225 1.382-.674 1.831-.449.44-1.074.66-1.875.66-.82 0-1.455-.215-1.904-.645-.45-.44-.674-1.055-.674-1.846z" fill="#FCC232"/></svg>