<svg width="100" height="17" fill="none" xmlns="http://www.w3.org/2000/svg"><path d="M8.541.352a.12.12 0 01.228 0l1.711 5.266a.12.12 0 00.115.083h5.537a.12.12 0 01.07.217l-4.48 3.255a.12.12 0 00-.043.134l1.711 5.267a.12.12 0 01-.184.134l-4.48-3.255a.12.12 0 00-.141 0l-4.48 3.255a.12.12 0 01-.185-.134l1.711-5.267a.12.12 0 00-.043-.134l-4.48-3.255a.12.12 0 01.07-.217h5.538a.12.12 0 00.114-.083L8.54.352zm20.625 0a.12.12 0 01.228 0l1.711 5.266a.12.12 0 00.114.083h5.538a.12.12 0 01.07.217l-4.48 3.255a.12.12 0 00-.043.134l1.711 5.267a.12.12 0 01-.184.134l-4.48-3.255a.12.12 0 00-.141 0l-4.48 3.255a.12.12 0 01-.185-.134l1.711-5.267a.12.12 0 00-.043-.134l-4.48-3.255a.12.12 0 01.07-.217h5.538a.12.12 0 00.114-.083L29.166.352zm20.625 0a.12.12 0 01.228 0l1.712 5.266a.12.12 0 00.114.083h5.537a.12.12 0 01.07.217l-4.48 3.255a.12.12 0 00-.043.134l1.711 5.267a.12.12 0 01-.184.134l-4.48-3.255a.12.12 0 00-.141 0l-4.48 3.255a.12.12 0 01-.185-.134l1.711-5.267a.12.12 0 00-.043-.134l-4.48-3.255a.12.12 0 01.07-.217h5.538a.12.12 0 00.114-.083L49.79.352zm20.625 0a.12.12 0 01.228 0l1.712 5.266a.12.12 0 00.114.083h5.537a.12.12 0 01.07.217l-4.48 3.255a.12.12 0 00-.043.134l1.711 5.267a.12.12 0 01-.184.134l-4.48-3.255a.12.12 0 00-.141 0l-4.48 3.255a.12.12 0 01-.185-.134l1.711-5.267a.12.12 0 00-.043-.134l-4.48-3.255a.12.12 0 01.07-.217h5.538a.12.12 0 00.114-.083L70.416.352zm20.625 0a.12.12 0 01.228 0l1.712 5.266a.12.12 0 00.114.083h5.537a.12.12 0 01.07.217l-4.48 3.255a.12.12 0 00-.043.134l1.711 5.267a.12.12 0 01-.184.134l-4.48-3.255a.12.12 0 00-.141 0l-4.48 3.255a.12.12 0 01-.185-.134l1.711-5.267a.12.12 0 00-.043-.134l-4.48-3.255a.12.12 0 01.07-.217h5.538a.12.12 0 00.114-.083L91.04.352z" fill="#FFBA0E"/></svg>