<svg width="28" height="19" fill="none" xmlns="http://www.w3.org/2000/svg"><path d="M27.55 17.372c0 .9-.729 1.628-1.628 1.628H1.629C.729 19 0 18.271 0 17.372V1.629C0 .73.73 0 1.629 0h24.293c.9 0 1.628.73 1.628 1.63v15.742z" fill="#306FC5"/><path opacity=".15" d="M1.158 17.372V1.629C1.158.73 1.887 0 2.786 0H1.628A1.63 1.63 0 000 1.63v15.742C0 18.272.73 19 1.629 19h1.158c-.9 0-1.63-.729-1.63-1.628z" fill="#202121"/><path d="M4.014 7.603h.823l-.412-1.047-.411 1.047zm4.377 3.517v.487h1.385v.524H8.39v.561h1.534l.711-.786-.673-.785H8.39zm10.813-4.564l-.448 1.047h.86l-.412-1.047zm-6.809 6.435v-2.133l-.973 1.048.973 1.085zm1.833-1.534c-.037-.224-.187-.336-.412-.336h-.785v.673h.823c.225 0 .374-.112.374-.337zm2.619.263c.075-.038.113-.15.113-.262.037-.15-.038-.224-.113-.262-.074-.037-.187-.037-.299-.037H15.8v.598h.748c.112 0 .225 0 .3-.037z" fill="#fff"/><path d="M22.235 5.583v.449l-.224-.449h-1.759v.449l-.224-.449h-2.395c-.412 0-.748.075-1.048.225v-.225h-1.683v.225c-.187-.15-.412-.225-.711-.225H8.167l-.412.935-.411-.935H5.436v.449l-.188-.449H3.602l-.748 1.758-.86 1.909-.017.037h1.948l.014-.037.225-.561h.486l.224.598h2.17v-.449l.188.45h1.084l.187-.45v.449h5.201v-.973h.075c.075 0 .075 0 .075.113v.823h2.694v-.225c.225.113.561.225 1.01.225h1.123l.224-.599h.524l.224.599h2.17v-.561l.337.56h1.759V5.584h-1.684zM9.551 8.726h-.598V6.668l-.038.086v-.001l-.87 1.973h-.552l-.898-2.058v2.058H5.323l-.262-.561H3.79l-.262.561H2.87l1.107-2.62h.936L5.96 8.614V6.107h.992l.017.037h.001l.473 1.028.339.77.012-.04.748-1.795h1.01v2.62zm2.582-2.058h-1.46v.487h1.423v.523h-1.422v.524h1.459v.561h-2.095V6.107h2.095v.561zm2.669.965l.003.002a.72.72 0 01.17.483v.02l.002.064v.524h-.562v-.3c0-.149 0-.374-.112-.523a.34.34 0 00-.11-.075c-.056-.037-.162-.037-.339-.037h-.674v.935h-.636v-2.62h1.422c.337.001.562.001.749.113.183.11.294.293.298.582a.743.743 0 01-.448.69.5.5 0 00.237.142zm1.26 1.093h-.637v-2.62h.637v2.62zm7.296 0h-.823l-1.198-1.983v1.646l-.004-.004v.343h-.632v-.002h-.636l-.224-.561h-1.31l-.225.598h-.71c-.3 0-.674-.074-.898-.299-.225-.224-.337-.524-.337-1.01 0-.374.075-.749.337-1.048.187-.224.523-.299.935-.299h.599v.561h-.6c-.224 0-.336.037-.486.15-.112.112-.187.337-.187.598 0 .3.038.487.188.636.112.113.262.15.449.15h.261l.86-2.057h.936l1.048 2.506V6.144h.936l1.084 1.834V6.145h.637v2.581z" fill="#fff"/><path d="M14.268 7.198a.404.404 0 00.081-.322.201.201 0 00-.005-.034l-.002-.009a.21.21 0 00-.114-.127c-.075-.038-.187-.038-.3-.038h-.748v.6h.749c.112 0 .224 0 .3-.038a.144.144 0 00.03-.023v.001l.01-.01zm11.297 5.27c0-.262-.075-.524-.187-.71v-1.684h-.002V9.96h-1.801c-.234 0-.517.224-.517.224V9.96h-1.72c-.263 0-.6.075-.75.224V9.96h-3.067v.224c-.225-.187-.637-.224-.823-.224h-2.02v.224c-.188-.187-.637-.224-.862-.224h-2.244l-.524.561-.487-.561H7.194v3.779h3.293l.54-.541.47.541h2.094v-.86h.187c.262 0 .599 0 .86-.113v1.012h1.684v-.973h.075c.112 0 .112 0 .112.112v.861H21.6c.337 0 .673-.075.86-.225v.225h1.61c.336 0 .673-.038.897-.188.345-.206.562-.572.594-1.008l.005-.04-.002-.001.002-.073zm-11.786-.224h-.748v.972H11.8l-.716-.823-.002.003-.035-.04-.823.86H7.83v-2.619h2.432l.665.728.14.152.018-.02.786-.86h1.983c.385 0 .816.095.979.487.02.077.031.164.031.261 0 .749-.524.899-1.085.899zm3.742-.038c.075.112.112.262.112.487v.523h-.636v-.336c0-.15 0-.412-.112-.524-.075-.112-.225-.112-.45-.112h-.673v.972h-.636V10.56h1.422c.3 0 .561 0 .748.112.187.112.337.3.337.599a.745.745 0 01-.449.71c.187.075.3.15.337.225zm2.581-1.085h-1.459v.486h1.422v.524h-1.422v.524h1.46v.561h-2.096V10.56h2.095v.56zm1.572 2.095h-1.197v-.56h1.197c.112 0 .187 0 .262-.076a.285.285 0 00.075-.187.285.285 0 00-.075-.187.321.321 0 00-.225-.075c-.598-.037-1.31 0-1.31-.823 0-.374.225-.786.899-.786h1.234v.636h-1.16c-.112 0-.187 0-.261.038-.075.037-.075.112-.075.187 0 .112.075.15.15.187.074.037.15.037.224.037h.337c.336 0 .56.075.71.225.113.112.188.3.188.561 0 .561-.337.823-.973.823zm3.218-.262c-.15.15-.412.262-.786.262h-1.197v-.56h1.197c.112 0 .187 0 .262-.076a.286.286 0 00.075-.187.286.286 0 00-.075-.187.32.32 0 00-.225-.075c-.598-.037-1.31 0-1.31-.823 0-.355.204-.677.706-.772.06-.008.123-.014.193-.014h1.235v.636h-1.16c-.113 0-.187 0-.262.038a.286.286 0 00-.075.187c0 .112.037.15.15.187.074.037.15.037.224.037h.337c.163 0 .287.02.4.06.104.038.447.191.524.592a.835.835 0 01.011.134.761.761 0 01-.224.561z" fill="#fff"/></svg>