<svg width="36" height="10" fill="none" xmlns="http://www.w3.org/2000/svg"><path d="M24.09 0h-2.748c-.161 0-.323.162-.404.324l-1.132 7.114c0 .162.081.243.243.243h1.455c.162 0 .242-.081.242-.243l.324-2.021c0-.162.162-.323.404-.323h.89c1.859 0 2.91-.89 3.152-2.668.162-.728 0-1.375-.323-1.779C25.708.243 24.98 0 24.09 0zm.324 2.668c-.161.97-.889.97-1.617.97h-.485l.324-1.859c0-.08.08-.162.242-.162h.162c.485 0 .97 0 1.213.324.161.08.161.323.161.727z" fill="#139AD6"/><path d="M4.285 0H1.536c-.162 0-.323.162-.404.324L0 7.438c0 .162.08.243.243.243h1.293c.162 0 .323-.162.404-.324l.324-1.94c0-.162.161-.323.404-.323h.89c1.858 0 2.91-.89 3.152-2.668.162-.728 0-1.375-.323-1.779C5.902.243 5.255 0 4.285 0zm.323 2.668c-.162.97-.89.97-1.617.97h-.404L2.91 1.78c0-.08.081-.162.243-.162h.162c.485 0 .97 0 1.212.324.081.08.162.323.081.727zm8.003-.081h-1.293c-.08 0-.242.081-.242.162l-.081.404-.081-.161c-.324-.405-.89-.566-1.536-.566-1.455 0-2.749 1.132-2.991 2.668a2.41 2.41 0 00.485 2.02c.404.486.97.647 1.697.647 1.213 0 1.86-.727 1.86-.727l-.081.404c0 .162.08.243.242.243h1.213c.162 0 .323-.162.404-.324l.728-4.527c-.081-.08-.243-.243-.324-.243zm-1.859 2.587c-.162.728-.728 1.294-1.536 1.294-.404 0-.728-.162-.89-.323-.16-.243-.242-.566-.242-.97A1.48 1.48 0 019.54 3.88c.405 0 .647.162.89.323.242.243.323.647.323.97z" fill="#263B80"/><path d="M32.337 2.587h-1.293c-.081 0-.243.081-.243.162l-.08.404-.082-.161c-.323-.405-.889-.566-1.536-.566-1.455 0-2.748 1.132-2.99 2.668a2.41 2.41 0 00.484 2.02c.404.486.97.647 1.698.647 1.213 0 1.86-.727 1.86-.727l-.082.404c0 .162.081.243.243.243h1.213c.161 0 .323-.162.404-.324l.727-4.527c-.08-.08-.161-.243-.323-.243zm-1.86 2.587c-.161.728-.727 1.294-1.535 1.294-.405 0-.728-.162-.89-.323-.161-.243-.242-.566-.242-.97a1.48 1.48 0 011.455-1.294c.404 0 .647.162.89.323.323.243.403.647.323.97z" fill="#139AD6"/><path d="M19.645 2.588H18.27c-.161 0-.242.08-.323.162L16.17 5.498l-.809-2.587c-.08-.161-.162-.242-.404-.242h-1.294c-.161 0-.242.161-.242.323l1.455 4.285-1.374 1.94c-.081.162 0 .404.161.404h1.294c.162 0 .242-.08.323-.161l4.447-6.387c.242-.243.08-.485-.081-.485z" fill="#263B80"/><path d="M33.873.243L32.741 7.52c0 .162.081.243.243.243h1.131c.162 0 .324-.162.405-.324L35.65.324c0-.162-.08-.242-.242-.242h-1.294c-.08-.081-.161 0-.242.161z" fill="#139AD6"/></svg>