<svg width="32" height="19" fill="none" xmlns="http://www.w3.org/2000/svg"><path d="M31.667 9.5c0 5.228-4.223 9.5-9.5 9.5-5.228 0-9.5-4.272-9.5-9.5 0-5.227 4.222-9.5 9.45-9.5 5.327 0 9.55 4.273 9.55 9.5z" fill="#FFB600"/><path d="M22.167 0c5.227 0 9.5 4.273 9.5 9.5 0 5.228-4.223 9.5-9.5 9.5-5.228 0-9.5-4.272-9.5-9.5" fill="#F7981D"/><path d="M22.167 0c5.227 0 9.5 4.273 9.5 9.5 0 5.228-4.223 9.5-9.5 9.5" fill="#FF8500"/><path d="M9.4 0C4.221.05 0 4.273 0 9.5 0 14.728 4.222 19 9.5 19c2.463 0 4.675-.955 6.384-2.462.351-.302.653-.654.955-1.006h-1.96a11.564 11.564 0 01-.704-.955h3.367c.201-.301.402-.653.553-1.005h-4.473a5.999 5.999 0 01-.402-1.005h5.227c.302-.955.503-1.96.503-3.016 0-.704-.1-1.357-.201-2.01h-5.831c.05-.353.15-.654.251-1.006h5.228a5.988 5.988 0 00-.402-1.005H13.57c.151-.352.352-.654.553-1.006h3.368a4.78 4.78 0 00-.754-1.005h-1.86c.302-.352.603-.653.955-.955C14.175 1.006 11.913.101 9.45.101c0-.1 0-.1-.05-.1z" fill="#FF5050"/><path d="M0 9.5C0 14.729 4.222 19 9.5 19c2.463 0 4.675-.954 6.384-2.462.351-.302.653-.654.955-1.006h-1.96a11.565 11.565 0 01-.704-.955h3.367c.201-.301.402-.653.553-1.005h-4.473a5.994 5.994 0 01-.402-1.005h5.227c.302-.955.503-1.96.503-3.016 0-.704-.1-1.357-.201-2.01h-5.831c.05-.353.15-.654.251-1.006h5.228a5.988 5.988 0 00-.402-1.005H13.57c.151-.352.352-.654.553-1.006h3.368a4.78 4.78 0 00-.754-1.005h-1.86c.302-.352.603-.653.955-.955C14.175 1.006 11.913.101 9.45.101H9.4" fill="#E52836"/><path d="M9.5 19c2.463 0 4.675-.954 6.383-2.462.352-.302.654-.654.956-1.006h-1.96a11.611 11.611 0 01-.704-.955h3.367c.201-.301.402-.653.553-1.005h-4.473a5.986 5.986 0 01-.402-1.005h5.227c.302-.955.503-1.96.503-3.016 0-.704-.1-1.357-.201-2.01h-5.831c.05-.353.15-.654.251-1.006h5.228a5.988 5.988 0 00-.402-1.005H13.57c.151-.352.352-.654.553-1.006h3.368a4.78 4.78 0 00-.754-1.005h-1.86c.302-.352.603-.653.955-.955C14.174 1.006 11.913.101 9.45.101H9.4" fill="#CB2026"/><path d="M12.868 11.913l.15-.854c-.05 0-.15.05-.25.05-.353 0-.403-.201-.353-.302l.302-1.76h.553l.15-.954h-.502l.1-.603h-1.005s-.603 3.317-.603 3.72c0 .602.352.854.804.854.302 0 .553-.1.654-.151zm.352-1.608c0 1.407.955 1.76 1.759 1.76.754 0 1.055-.152 1.055-.152l.201-.955s-.552.252-1.055.252c-1.106 0-.905-.805-.905-.805h2.061s.15-.653.15-.904c0-.654-.351-1.458-1.457-1.458-1.055-.1-1.81 1.005-1.81 2.262zm1.759-1.458c.553 0 .452.654.452.704h-1.106c0-.05.101-.704.654-.704zm6.383 3.066l.201-1.106s-.502.252-.854.252c-.704 0-1.005-.553-1.005-1.156 0-1.207.603-1.86 1.306-1.86.503 0 .905.301.905.301l.151-1.055s-.603-.251-1.156-.251c-1.156 0-2.312 1.005-2.312 2.915 0 1.257.603 2.111 1.81 2.111.401 0 .954-.15.954-.15zM7.339 7.942c-.704 0-1.207.201-1.207.201l-.15.854s.452-.2 1.105-.2c.352 0 .654.05.654.351 0 .201-.05.252-.05.252h-.453c-.855 0-1.81.351-1.81 1.508 0 .904.604 1.105.955 1.105.704 0 1.006-.452 1.056-.452l-.05.402h.905l.402-2.764c0-1.207-1.006-1.257-1.357-1.257zm.2 2.262c0 .15-.1.955-.703.955-.302 0-.402-.252-.402-.402 0-.252.15-.604.905-.604.15.05.2.05.2.05zm2.111 1.809c.252 0 1.509.05 1.509-1.307 0-1.256-1.207-1.005-1.207-1.508 0-.25.201-.351.553-.351.151 0 .704.05.704.05l.15-.905s-.351-.1-.954-.1c-.754 0-1.508.301-1.508 1.306 0 1.157 1.256 1.056 1.256 1.508 0 .302-.351.352-.603.352-.452 0-.905-.15-.905-.15l-.15.904c.05.1.301.201 1.156.201zm20.056-4.875l-.2 1.357s-.403-.502-.956-.502c-.905 0-1.709 1.105-1.709 2.412 0 .805.402 1.66 1.257 1.66.603 0 .955-.403.955-.403l-.05.352h1.005l.754-4.826-1.056-.05zm-.452 2.664c0 .553-.251 1.257-.804 1.257-.352 0-.553-.302-.553-.804 0-.805.352-1.307.804-1.307.352 0 .553.251.553.854zM1.86 11.964l.603-3.62.1 3.62h.704l1.307-3.62-.553 3.62h1.056l.804-4.826H4.222l-1.005 2.966-.05-2.966H1.709l-.804 4.826h.955zm15.582-.001c.301-1.659.352-3.016 1.055-2.764.1-.654.252-.905.352-1.157h-.2c-.453 0-.805.604-.805.604l.1-.553h-.955l-.653 3.92h1.106v-.05zm6.233-4.021c-.704 0-1.207.201-1.207.201l-.15.854s.452-.2 1.105-.2c.352 0 .654.05.654.351 0 .201-.05.252-.05.252h-.453c-.854 0-1.81.351-1.81 1.508 0 .904.604 1.105.956 1.105.703 0 1.005-.452 1.055-.452l-.05.402h.905l.402-2.764c.05-1.207-1.006-1.257-1.357-1.257zm.25 2.262c0 .15-.1.955-.703.955-.301 0-.402-.252-.402-.402 0-.252.15-.604.905-.604.15.05.15.05.2.05zm1.961 1.759c.302-1.659.352-3.016 1.056-2.764.1-.654.251-.905.352-1.157h-.201c-.453 0-.805.604-.805.604l.1-.553h-.954l-.654 3.92h1.106v-.05z" fill="#fff"/><path d="M11.31 11.21c0 .602.351.854.804.854.352 0 .653-.1.754-.151l.15-.854c-.05 0-.15.05-.25.05-.353 0-.403-.201-.353-.302l.302-1.76h.553l.15-.954h-.502l.1-.603m.704 2.815c0 1.407.453 1.76 1.257 1.76.754 0 1.055-.152 1.055-.152l.201-.955s-.553.252-1.055.252c-1.106 0-.905-.805-.905-.805h2.06s.152-.653.152-.904c0-.654-.352-1.458-1.458-1.458-1.056-.1-1.307 1.005-1.307 2.262zm1.257-1.458c.553 0 .653.654.653.704h-1.307c0-.05.1-.704.654-.704zm6.383 3.066l.201-1.106s-.502.252-.854.252c-.704 0-1.005-.553-1.005-1.156 0-1.207.603-1.86 1.306-1.86.503 0 .905.301.905.301l.151-1.055s-.603-.251-1.156-.251c-1.156 0-1.81 1.005-1.81 2.915 0 1.257.101 2.111 1.307 2.111.402 0 .955-.15.955-.15zM5.981 9.048s.453-.201 1.106-.201c.352 0 .654.05.654.352 0 .2-.05.25-.05.25h-.453c-.855 0-1.81.353-1.81 1.509 0 .905.604 1.106.955 1.106.704 0 1.006-.453 1.056-.453l-.05.402h.905l.402-2.764c0-1.156-1.006-1.207-1.408-1.207L5.981 9.048zm2.061 1.156c0 .15-.603.955-1.206.955-.302 0-.402-.251-.402-.402 0-.252.15-.603.905-.603.15.05.703.05.703.05zm.503 1.709s.302.1 1.156.1c.251 0 1.508.05 1.508-1.307 0-1.256-1.206-1.005-1.206-1.508 0-.25.2-.351.553-.351.15 0 .703.05.703.05l.151-.905s-.352-.1-.955-.1c-.754 0-1.005.301-1.005 1.306 0 1.157.754 1.056.754 1.508 0 .302-.352.352-.604.352m19.905-2.563s-.402-.502-.955-.502c-.905 0-1.206 1.106-1.206 2.412 0 .805-.1 1.66.754 1.66.603 0 .955-.403.955-.403l-.05.352h1.005l.754-4.826-1.257 1.307zm-.05 1.307c0 .553-.452 1.257-1.005 1.257-.352 0-.553-.302-.553-.804 0-.805.352-1.307.804-1.307.352 0 .754.251.754.854zM1.86 11.964l.603-3.62.1 3.62h.704l1.307-3.62-.553 3.62h1.056l.804-4.826H4.624l-1.407 2.966-.05-2.966h-.553l-1.71 4.826h.956zm14.526-.001h1.056c.301-1.659.352-3.016 1.055-2.764.1-.654.252-.905.352-1.157h-.2c-.453 0-.805.604-.805.604l.1-.553m4.373.955s.453-.201 1.106-.201c.352 0 .654.05.654.352 0 .2-.05.25-.05.25h-.453c-.854 0-1.81.353-1.81 1.509 0 .905.604 1.106.956 1.106.703 0 1.005-.453 1.055-.453l-.05.402h.905l.402-2.764c0-1.156-1.006-1.207-1.408-1.207l-1.307 1.006zm2.061 1.156c0 .15-.603.955-1.206.955-.302 0-.402-.251-.402-.402 0-.252.15-.603.905-.603.2.05.703.05.703.05zm.452 1.759h1.056c.302-1.659.352-3.016 1.056-2.764.1-.654.251-.905.352-1.157h-.201c-.453 0-.805.604-.805.604l.1-.553" fill="#DCE5E5"/></svg>