<svg width="28" height="20" fill="none" xmlns="http://www.w3.org/2000/svg"><path d="M28 17.655c0 .914-.741 1.655-1.655 1.655H1.655A1.655 1.655 0 010 17.655v-16C0 .743.741 0 1.655 0h24.69C27.259 0 28 .742 28 1.656v16z" fill="#fff"/><path d="M6.215 9.767l-.658-3.154c-.112-.435-.44-.565-.848-.582H1.695l-.027.144c2.348.57 3.901 1.942 4.547 3.592z" fill="#F79F1A"/><path d="M13.199 6.095h-1.948l-1.216 7.138h1.944l1.22-7.138zm-5.797 7.131L10.465 6.1H8.403l-1.905 4.868-.203-.735C5.92 9.35 4.854 8.076 3.6 7.275l1.742 5.953 2.06-.002zM18.754 10.9c.007-.81-.513-1.429-1.635-1.94-.68-.33-1.096-.55-1.091-.884 0-.296.351-.613 1.114-.613.637-.01 1.096.13 1.456.273l.176.081.264-1.546a5.045 5.045 0 00-1.745-.298c-1.922 0-3.276.967-3.288 2.355-.012 1.026.967 1.597 1.705 1.94.757.348 1.011.571 1.007.884-.005.478-.604.696-1.163.696-.78 0-1.192-.107-1.833-.374l-.249-.115-.273 1.6c.454.198 1.294.372 2.167.38 2.044 0 3.373-.956 3.388-2.44zm2.313 1.263l2.492.002c.059.249.237 1.07.237 1.07h1.806l-1.576-7.133h-1.503c-.466 0-.813.127-1.018.591l-2.89 6.542h2.045s.332-.879.407-1.072zm1.334-3.457c-.01.02.162-.413.26-.681l.131.615s.371 1.705.45 2.062h-1.615c.161-.41.774-1.996.774-1.996zM26.345 0H1.655C.741 0 0 .742 0 1.656v1.718h28V1.655C28 .742 27.259 0 26.345 0z" fill="#059BBF"/><path d="M26.345 19.31H1.655A1.655 1.655 0 010 17.655v-1.718h28v1.718c0 .914-.741 1.655-1.655 1.655z" fill="#F79F1A"/><path opacity=".15" d="M1.177 17.655v-16C1.177.743 1.917 0 2.832 0H1.655C.741 0 0 .742 0 1.656v16c0 .914.741 1.655 1.655 1.655h1.177a1.655 1.655 0 01-1.655-1.656z" fill="#202121"/></svg>